<svg width="1016" height="223" viewBox="0 0 1016 223" fill="none" xmlns="http://www.w3.org/2000/svg">
<path d="M64 188.75C51.5 188.75 40.4167 186.167 30.75 181C21.0833 175.667 13.5833 168.25 8.25 158.75C2.91667 149.083 0.25 137.917 0.25 125.25C0.25 112.75 2.91667 101.667 8.25 92C13.5833 82.1667 21 74.5833 30.5 69.25C40.1667 63.9167 51.3333 61.25 64 61.25C72.3333 61.25 80 62.4167 87 64.75C94 67.0833 100 70.4167 105 74.75V0.249994H149V185H106.5V173C95.3333 183.5 81.1667 188.75 64 188.75ZM75.5 154.75C82.1667 154.75 88.1667 153.083 93.5 149.75C98.8333 146.25 102.667 141.583 105 135.75V114.5C102.667 108.667 98.8333 104.083 93.5 100.75C88.1667 97.25 82.1667 95.5 75.5 95.5C66.5 95.5 59.25 98.1667 53.75 103.5C48.25 108.833 45.5 116.083 45.5 125.25C45.5 134.417 48.25 141.667 53.75 147C59.25 152.167 66.5 154.75 75.5 154.75Z" fill="#245B80"/>
<path d="M166.51 55.75H282.26V90.25H166.51V55.75ZM166.51 112.25H282.26V147H166.51V112.25Z" fill="#E75A83"/>
<path d="M351.684 188.75C336.85 188.75 325.6 184.667 317.934 176.5C310.434 168.167 306.684 156.833 306.684 142.5V95.5H289.684V65H306.684V29H350.684V65H378.184V95.5H350.684V136.5C350.684 143 351.85 147.667 354.184 150.5C356.684 153.333 361.017 154.75 367.184 154.75C372.684 154.75 378.184 153.25 383.684 150.25V183C379.35 185 374.684 186.417 369.684 187.25C364.85 188.25 358.85 188.75 351.684 188.75ZM396.119 0.249994H440.119V77.25C445.452 71.9167 451.536 67.9167 458.369 65.25C465.369 62.5833 472.702 61.25 480.369 61.25C497.202 61.25 509.619 65.6667 517.619 74.5C525.786 83.1667 529.869 95 529.869 110V185H485.869V115.75C485.869 102.25 479.702 95.5 467.369 95.5C461.702 95.5 456.536 96.8333 451.869 99.5C447.202 102 443.286 105.917 440.119 111.25V185H396.119V0.249994ZM551.148 65H593.648V80C598.315 74.6667 604.898 70.5833 613.398 67.75C621.898 64.75 631.315 63.25 641.648 63.25V97C630.648 97 620.898 98.5833 612.398 101.75C604.065 104.917 598.315 109.667 595.148 116V185H551.148V65ZM724.676 188.75C701.176 188.75 682.676 183.25 669.176 172.25C655.842 161.25 649.176 145.667 649.176 125.5C649.176 105.667 655.092 90 666.926 78.5C678.926 67 696.176 61.25 718.676 61.25C733.009 61.25 745.259 64 755.426 69.5C765.759 74.8333 773.509 82.25 778.676 91.75C784.009 101.083 786.676 111.667 786.676 123.5V139.75H690.926C692.592 146.417 696.759 151.25 703.426 154.25C710.092 157.25 719.176 158.75 730.676 158.75C738.509 158.75 746.509 158.083 754.676 156.75C763.009 155.417 770.176 153.583 776.176 151.25V180.25C770.009 182.75 762.259 184.75 752.926 186.25C743.759 187.917 734.342 188.75 724.676 188.75ZM745.176 112.25C744.509 105.75 741.842 100.667 737.176 97C732.509 93.3333 726.092 91.5 717.926 91.5C709.926 91.5 703.592 93.4167 698.926 97.25C694.259 100.917 691.592 105.917 690.926 112.25H745.176ZM874.578 188.75C851.078 188.75 832.578 183.25 819.078 172.25C805.745 161.25 799.078 145.667 799.078 125.5C799.078 105.667 804.995 90 816.828 78.5C828.828 67 846.078 61.25 868.578 61.25C882.911 61.25 895.161 64 905.328 69.5C915.661 74.8333 923.411 82.25 928.578 91.75C933.911 101.083 936.578 111.667 936.578 123.5V139.75H840.828C842.495 146.417 846.661 151.25 853.328 154.25C859.995 157.25 869.078 158.75 880.578 158.75C888.411 158.75 896.411 158.083 904.578 156.75C912.911 155.417 920.078 153.583 926.078 151.25V180.25C919.911 182.75 912.161 184.75 902.828 186.25C893.661 187.917 884.245 188.75 874.578 188.75ZM895.078 112.25C894.411 105.75 891.745 100.667 887.078 97C882.411 93.3333 875.995 91.5 867.828 91.5C859.828 91.5 853.495 93.4167 848.828 97.25C844.161 100.917 841.495 105.917 840.828 112.25H895.078Z" fill="#FF6F61"/>
<path d="M990.23 103.25C984.397 103.25 979.314 101.167 974.98 97C970.814 92.6667 968.73 87.5833 968.73 81.75C968.73 75.9167 970.814 70.9167 974.98 66.75C979.314 62.4167 984.397 60.25 990.23 60.25C996.064 60.25 1001.06 62.4167 1005.23 66.75C1009.56 70.9167 1011.73 75.9167 1011.73 81.75C1011.73 87.5833 1009.56 92.6667 1005.23 97C1001.06 101.167 996.064 103.25 990.23 103.25ZM969.73 169.5H1015.23L988.98 222.25H948.98L969.73 169.5Z" fill="#338FB8"/>
</svg>
